<svg width="75" height="45" viewBox="0 0 75 45" fill="none" xmlns="http://www.w3.org/2000/svg">
<path d="M47.52 18.312V10.184H37.344L37.472 0.199951H29.024L28.832 10.184H19.168L19.296 0.199951H10.784L10.656 10.184H0.0960083V18.312H10.528L10.4 26.952H0.0960083V35.08H10.272L10.144 45H18.656L18.784 35.08H28.512L28.384 45H36.832L36.96 35.08H47.52V26.952H37.088L37.216 18.312H47.52ZM28.64 26.952H18.912L19.04 18.312H28.768L28.64 26.952ZM64.132 45H74.308V0.199951H64.388L64.26 1.79996C64.004 5.51196 62.276 7.23995 58.5 7.43195L53.188 7.68796V15.88H64.132V45Z" fill="#050038"/>
</svg>
