<svg width="182" height="46" viewBox="0 0 182 46" fill="none" xmlns="http://www.w3.org/2000/svg">
<path d="M41.95 17.352H29.982V3.39996H19.55V17.352H11.038V0.199951H0.606293V25.544H19.358V45H29.982V25.544H41.95V17.352ZM66.781 13.896C62.749 13.896 59.421 15.048 56.861 17.16L57.245 9.15996H79.901V0.199951H48.797L48.093 25.224H58.333C59.805 23.368 61.917 22.472 64.477 22.472C68.893 22.472 71.965 25.16 71.965 29.512C71.965 33.736 69.021 36.616 64.477 36.616C59.933 36.616 56.861 33.8 56.669 29.064H45.725C45.597 39.048 53.213 45.64 64.285 45.64C75.421 45.64 82.909 38.984 82.909 29.256C82.909 19.976 76.189 13.896 66.781 13.896ZM90.757 45H100.933V10.952L101.317 10.888L110.661 41.16H119.941L129.349 10.888L129.733 10.952V45H139.909V0.199951H123.781L115.461 30.152H115.205L106.885 0.199951H90.757V45ZM181.996 18.824H169.708V6.66396H160.94V18.824H148.716V27.72H160.94V39.88H169.708V27.72H181.996V18.824Z" fill="#050038"/>
</svg>
