<svg width="193" height="44" viewBox="0 0 193 44" fill="none" xmlns="http://www.w3.org/2000/svg">
<path d="M13.339 29.3822C19.8423 29.3822 22.379 25.3926 22.379 18.5667C22.379 11.7423 19.4124 6.98389 13.5295 6.98389H6.93627V29.3822H13.339ZM0 1.02476H14.3908C23.5254 1.02476 29.4083 8.42653 29.4083 18.5667C29.4083 24.1415 27.5424 29.0454 23.9553 32.0731C21.4201 34.1866 18.1196 35.3889 13.8162 35.3889H0V1.02476ZM49.2186 23.0862C49.2186 18.2787 46.9715 15.0105 43.0018 15.0105C38.9834 15.0105 36.782 18.2787 36.782 23.0862C36.782 27.892 38.9834 31.1113 43.0018 31.1113C46.9715 31.1113 49.2186 27.892 49.2186 23.0862ZM30.1827 23.0862C30.1827 15.7319 35.3963 10.0606 43.0018 10.0606C50.6058 10.0606 55.8194 15.7319 55.8194 23.0862C55.8194 30.4375 50.6058 36.1101 43.0018 36.1101C35.3948 36.1101 30.1812 30.439 30.1812 23.0862M56.8942 23.0862C56.8942 15.7319 61.6779 10.0606 69.1386 10.0606C75.5017 10.0606 79.4226 13.7623 80.2839 19.0966H73.9223C73.4924 16.9341 71.8186 15.2985 69.4267 15.2985C65.5043 15.2985 63.4966 18.3278 63.4966 23.0862C63.4966 27.7481 65.361 30.8724 69.3307 30.8724C71.9618 30.8724 73.8278 29.4787 74.2577 26.6914H80.5233C80.0933 31.9292 76.0261 36.1101 69.474 36.1101C61.7267 36.1101 56.8942 30.439 56.8942 23.0862ZM97.4599 35.3903V32.5065H97.3166C95.6427 34.7655 93.7296 36.0627 90.2858 36.0627C84.8329 36.0627 81.7717 32.5556 81.7717 27.1708V10.733H88.2278V26.065C88.2278 28.9488 89.5206 30.5355 92.2935 30.5355C95.3546 30.5355 97.2206 28.229 97.2206 24.9608V10.733H103.725V35.3903H97.4599ZM135.418 35.3903H141.92V10.733H135.418V35.3903ZM135.418 7.28707H141.92V1.17635H135.418V7.28707ZM161.79 21.9789C161.79 18.3753 159.877 15.2999 155.955 15.2999C152.654 15.2999 150.454 17.8943 150.454 22.0279C150.454 26.209 152.654 28.661 156.003 28.661C160.117 28.661 161.79 25.6331 161.79 21.9804M144.619 36.1101H151.073C151.601 37.6479 152.987 38.85 156 38.85C159.684 38.85 161.454 37.072 161.454 33.7072V31.0149H161.31C159.874 32.649 158.01 33.8987 154.9 33.8987C149.448 33.8987 144.092 29.5737 144.092 22.1244C144.092 14.7701 148.491 10.0606 154.709 10.0606C157.771 10.0606 160.018 11.2614 161.501 13.329H161.597V10.733H167.862V33.5143C167.862 36.9755 166.761 39.3294 164.945 41.0126C162.887 42.9346 159.731 43.7999 156.097 43.7999C149.4 43.7999 145.287 40.9161 144.617 36.1101M177.015 14.0978H177.158C178.833 11.4544 181.081 10.0606 184.429 10.0606C189.499 10.0606 192.894 13.9047 192.894 19.288V35.3889H186.389V20.2498C186.389 17.6065 184.858 15.7319 182.132 15.7319C179.262 15.7319 177.158 18.0383 177.158 21.403V35.3889H170.653V10.733H177.015V14.0978ZM120.594 14.6736C115.523 13.5709 113.132 12.7531 113.132 9.96423C113.132 7.51378 115.57 5.9271 119.302 5.9271C122.707 5.9271 125.309 7.53218 125.843 10.733H132.513C131.835 4.06018 126.906 0.399902 119.349 0.399902C111.746 0.399902 106.244 3.90859 106.244 10.6855C106.244 17.8469 111.84 19.481 117.963 20.8747C123.176 22.077 126.429 22.7493 126.429 26.1124C126.429 29.2858 123.32 30.5355 119.781 30.5355C114.903 30.5355 112.559 28.9013 112.079 24.7678H105.288C105.527 32.0256 110.788 36.1577 120.067 36.1577C127.768 36.1577 133.364 32.266 133.364 25.2962C133.364 17.8943 127.624 16.2128 120.594 14.6736Z" fill="#050038"/>
</svg>
