<svg width="72" height="30" viewBox="0 0 72 30" fill="none" xmlns="http://www.w3.org/2000/svg">
<path d="M0.43129 2.69609C1.27492 1.03748 3.3969 0.215776 5.14435 0.798473C6.23734 1.14588 7.12396 2.02897 7.54148 3.09433C9.87459 8.63651 12.2182 14.1748 14.5504 19.7168C14.6144 19.5987 14.6756 19.4788 14.729 19.355C16.5214 15.0866 18.3281 10.8229 20.129 6.55745C20.9918 4.55237 22.3867 2.69702 24.3376 1.66131C25.4221 1.07964 26.6354 0.760963 27.8564 0.660213C31.016 0.313736 34.229 1.82643 36.202 4.28742C38.0354 2.70849 40.1516 1.36567 42.5316 0.824408C43.8185 0.525878 45.1551 0.583437 46.4565 0.743707C48.0835 0.95585 49.6914 1.51933 50.9995 2.53292C51.6587 3.03099 52.2261 3.64148 52.7392 4.28845C54.9987 2.09427 58.0504 0.644919 61.2214 0.612266C63.2421 0.569072 65.2848 1.10847 66.9854 2.2161C68.9431 3.46778 70.3914 5.49497 70.9178 7.76882C71.1758 8.81786 71.1873 9.90534 71.1844 10.9794C71.1844 15.5866 71.1835 20.1938 71.1854 24.801C71.1729 25.4144 71.1501 26.0364 70.9819 26.6306C70.6876 27.768 69.9358 28.8237 68.8418 29.2959C67.3016 29.9717 65.2714 29.7184 64.1516 28.3861C63.2497 27.362 63.0223 25.9346 63.0615 24.6101C63.0635 20.3234 63.0615 16.0368 63.0624 11.7502C63.0615 10.6378 62.6545 9.50131 61.8385 8.73055C61.0924 8.01351 60.0519 7.65939 59.0287 7.65164C57.8918 7.62292 56.7156 7.98479 55.8787 8.77953C55.0742 9.53293 54.6424 10.6454 54.6501 11.7434C54.6501 16.1597 54.651 20.5749 54.6491 24.9911C54.6434 26.1353 54.3807 27.3255 53.6536 28.2335C53.0793 28.9774 52.2051 29.464 51.2813 29.5974C50.2503 29.748 49.1354 29.5964 48.2688 28.9869C47.4882 28.4504 46.9714 27.5923 46.7287 26.6852C46.4803 25.8243 46.5214 24.9192 46.5204 24.0332C46.5204 19.9376 46.5195 15.8429 46.5214 11.7473C46.5118 10.7289 46.1784 9.69134 45.4914 8.92926C44.7214 8.0596 43.5424 7.63924 42.4007 7.65071C41.2514 7.64203 40.0638 8.03181 39.2498 8.86974C38.4701 9.64236 38.0927 10.7558 38.0947 11.8433C38.0947 16.2911 38.0937 20.74 38.0947 25.1879C38.087 26.3109 37.7679 27.4685 37.0332 28.3352C36.4943 28.9821 35.7233 29.4188 34.8997 29.5696C33.717 29.7894 32.3966 29.5868 31.4631 28.7816C30.436 27.9052 29.9947 26.5115 29.9908 25.1908C29.987 19.7793 29.9908 14.3686 29.9889 8.95798C29.9994 8.53473 29.794 8.10765 29.4309 7.88394C28.8759 7.50966 28.0016 7.69008 27.736 8.33602C25.21 13.8647 22.68 19.3914 20.1577 24.9221C19.6084 26.0729 19.0284 27.2381 18.1571 28.1826C17.5226 28.8718 16.6772 29.367 15.7551 29.5389C14.3067 29.8172 12.6893 29.6175 11.5113 28.6673C10.2673 27.6623 9.54976 26.1823 8.89434 24.7579C6.03957 18.5113 3.17524 12.2694 0.325239 6.02187C-0.131449 4.97087 -0.117118 3.71061 0.43129 2.69609Z" fill="#050038"/>
</svg>
